<svg xmlns="http://www.w3.org/2000/svg" xmlns:xlink="http://www.w3.org/1999/xlink" width="500" zoomAndPan="magnify" viewBox="0 0 375 374.999991" height="500" preserveAspectRatio="xMidYMid meet" version="1.0"><defs><clipPath id="942f1cbb58"><path d="M 137 65.007812 L 304 65.007812 L 304 310 L 137 310 Z M 137 65.007812 " clip-rule="nonzero"/></clipPath><clipPath id="87914208ff"><path d="M 72 65.007812 L 150 65.007812 L 150 259 L 72 259 Z M 72 65.007812 " clip-rule="nonzero"/></clipPath><clipPath id="a39cd34543"><path d="M 70.671875 153 L 98 153 L 98 232 L 70.671875 232 Z M 70.671875 153 " clip-rule="nonzero"/></clipPath></defs><rect x="-37.5" width="450" fill="#ffffff" y="-37.499999" height="449.999989" fill-opacity="1"/><rect x="-37.5" width="450" fill="#6366f1" y="-37.499999" height="449.999989" fill-opacity="1"/><g clip-path="url(#942f1cbb58)"><path fill="#ffffff" d="M 184.632812 118.046875 C 185.398438 118.808594 186.351562 119.191406 187.304688 119.191406 L 210.199219 119.191406 C 211.15625 119.191406 212.109375 118.808594 212.871094 118.046875 L 219.167969 111.75 C 221.074219 112.703125 223.175781 113.277344 225.464844 113.277344 C 232.90625 113.277344 238.820312 107.363281 238.820312 99.921875 C 238.820312 92.480469 232.90625 86.566406 225.464844 86.566406 C 218.023438 86.566406 212.109375 92.480469 212.109375 99.921875 C 212.109375 102.210938 212.679688 104.308594 213.636719 106.21875 L 208.675781 111.558594 L 188.832031 111.558594 L 175.859375 98.585938 L 175.859375 73.402344 L 186.921875 73.402344 C 187.304688 73.402344 187.6875 73.59375 188.066406 73.402344 C 222.03125 72.066406 256.945312 87.519531 273.925781 119.191406 L 261.144531 119.191406 C 259.425781 113.660156 254.464844 109.652344 248.359375 109.652344 C 240.917969 109.652344 235.003906 115.566406 235.003906 123.007812 C 235.003906 129.113281 239.011719 134.074219 244.542969 135.792969 L 244.542969 170.707031 L 215.925781 170.707031 C 213.824219 170.707031 212.109375 172.421875 212.109375 174.523438 L 212.109375 195.511719 L 204.476562 195.511719 L 204.476562 172.613281 C 204.476562 171.46875 203.902344 170.515625 203.140625 169.753906 L 191.121094 159.449219 L 191.121094 134.457031 L 206.765625 134.457031 L 211.917969 139.605469 C 210.964844 141.515625 210.390625 143.613281 210.390625 145.902344 C 210.390625 153.34375 216.304688 159.257812 223.746094 159.257812 C 231.1875 159.257812 237.101562 153.34375 237.101562 145.902344 C 237.101562 138.460938 231.1875 132.546875 223.746094 132.546875 C 221.457031 132.546875 219.359375 133.121094 217.449219 134.074219 L 211.15625 127.777344 C 210.199219 127.207031 209.246094 126.824219 208.292969 126.824219 L 187.304688 126.824219 C 185.207031 126.824219 183.488281 128.539062 183.488281 130.640625 L 183.488281 161.167969 C 183.488281 162.3125 184.0625 163.265625 184.824219 164.027344 L 196.84375 174.332031 L 196.84375 195.511719 L 181.582031 195.511719 C 180.628906 195.511719 179.671875 195.890625 178.910156 196.65625 L 148.382812 227.183594 C 147.621094 227.945312 147.238281 228.898438 147.238281 229.851562 L 147.238281 260.953125 C 141.707031 262.667969 137.699219 267.628906 137.699219 273.734375 C 137.699219 281.175781 143.613281 287.089844 151.054688 287.089844 C 158.496094 287.089844 164.410156 281.175781 164.410156 273.734375 C 164.410156 267.628906 160.402344 262.667969 154.871094 260.953125 L 154.871094 231.378906 L 183.109375 203.140625 L 252.175781 203.140625 C 253.703125 203.140625 255.039062 202.378906 255.609375 201.042969 L 267.058594 178.148438 C 267.25 177.574219 267.4375 177.003906 267.4375 176.429688 L 267.4375 163.074219 L 284.230469 163.074219 L 284.230469 178.71875 L 279.269531 189.59375 C 278.886719 190.550781 278.886719 191.503906 279.078125 192.457031 L 295.867188 237.292969 C 295.867188 237.484375 295.867188 237.675781 295.867188 237.867188 C 295.675781 238.058594 295.675781 238.058594 295.484375 238.058594 L 279.078125 238.058594 C 277.933594 238.058594 276.789062 238.628906 276.023438 239.582031 C 275.261719 240.539062 275.070312 241.875 275.453125 243.019531 L 280.03125 256.375 L 271.253906 259.425781 C 270.109375 259.808594 269.15625 260.761719 268.773438 261.90625 C 268.394531 263.050781 268.582031 264.386719 269.347656 265.339844 L 275.070312 273.164062 L 270.109375 276.980469 C 269.15625 277.742188 268.582031 278.886719 268.582031 280.03125 L 268.582031 289.761719 C 268.582031 294.152344 266.292969 298.347656 262.476562 300.445312 C 260.761719 301.59375 258.664062 302.164062 256.5625 302.164062 C 240.726562 302.355469 179.671875 282.320312 179.671875 248.933594 L 179.671875 240.917969 C 179.671875 238.820312 177.957031 237.101562 175.859375 237.101562 C 173.757812 237.101562 172.042969 238.820312 172.042969 240.917969 L 172.042969 248.933594 C 172.042969 289.570312 240.535156 309.988281 256.753906 309.988281 C 260.1875 309.988281 263.621094 309.03125 266.484375 307.316406 C 272.589844 303.691406 276.214844 297.203125 276.214844 289.953125 L 276.214844 281.941406 L 282.511719 276.980469 C 284.039062 275.644531 284.417969 273.355469 283.273438 271.828125 L 278.503906 265.148438 L 286.136719 262.480469 C 288.042969 261.714844 289.191406 259.617188 288.425781 257.710938 L 284.417969 245.6875 L 295.484375 245.6875 C 298.15625 245.6875 300.636719 244.351562 302.164062 242.253906 C 303.691406 239.964844 304.070312 237.101562 303.117188 234.621094 L 286.898438 191.3125 L 291.480469 181.199219 C 291.667969 180.628906 291.859375 180.246094 291.859375 179.675781 L 291.859375 158.6875 C 290.714844 129.875 278.886719 105.644531 257.898438 88.472656 C 238.820312 72.828125 214.207031 65.007812 188.066406 65.769531 C 187.878906 65.769531 187.496094 65.769531 187.304688 65.769531 L 172.042969 65.769531 C 169.941406 65.769531 168.226562 67.488281 168.226562 69.585938 L 168.226562 100.113281 C 168.226562 101.066406 168.605469 102.019531 169.371094 102.785156 Z M 225.464844 94.390625 C 228.707031 94.390625 231.1875 96.867188 231.1875 100.113281 C 231.1875 103.355469 228.707031 105.835938 225.464844 105.835938 C 222.21875 105.835938 219.738281 103.355469 219.738281 100.113281 C 219.738281 96.867188 222.21875 94.390625 225.464844 94.390625 Z M 223.554688 140.179688 C 226.800781 140.179688 229.28125 142.660156 229.28125 145.902344 C 229.28125 149.148438 226.800781 151.628906 223.554688 151.628906 C 220.3125 151.628906 217.832031 149.148438 217.832031 145.902344 C 217.832031 142.660156 220.3125 140.179688 223.554688 140.179688 Z M 156.777344 273.734375 C 156.777344 276.980469 154.296875 279.460938 151.054688 279.460938 C 147.8125 279.460938 145.332031 276.980469 145.332031 273.734375 C 145.332031 270.492188 147.8125 268.011719 151.054688 268.011719 C 154.296875 268.011719 156.777344 270.492188 156.777344 273.734375 Z M 242.636719 123.007812 C 242.636719 119.765625 245.117188 117.285156 248.359375 117.285156 C 251.601562 117.285156 254.082031 119.765625 254.082031 123.007812 C 254.082031 126.25 251.601562 128.730469 248.359375 128.730469 C 245.117188 128.730469 242.636719 126.25 242.636719 123.007812 Z M 284.039062 155.441406 L 263.621094 155.441406 C 261.523438 155.441406 259.808594 157.160156 259.808594 159.257812 L 259.808594 175.476562 L 249.886719 195.511719 L 219.738281 195.511719 L 219.738281 178.339844 L 248.359375 178.339844 C 250.457031 178.339844 252.175781 176.621094 252.175781 174.523438 L 252.175781 135.792969 C 256.5625 134.457031 259.808594 131.019531 261.144531 126.824219 L 277.550781 126.824219 C 280.984375 135.410156 283.273438 144.949219 284.039062 155.441406 Z M 284.039062 155.441406 " fill-opacity="1" fill-rule="nonzero"/></g><g clip-path="url(#87914208ff)"><path fill="#ffffff" d="M 82.367188 91.910156 L 82.367188 124.914062 C 82.367188 126.0625 82.941406 127.207031 83.703125 127.96875 L 104.691406 144.757812 C 104.882812 144.949219 105.074219 144.949219 105.261719 145.140625 L 105.261719 185.96875 C 105.261719 186.925781 105.644531 187.6875 106.21875 188.449219 L 116.710938 200.660156 L 116.710938 232.332031 C 111.179688 234.050781 107.171875 239.011719 107.171875 245.117188 C 107.171875 252.558594 113.085938 258.472656 120.527344 258.472656 C 127.96875 258.472656 133.882812 252.558594 133.882812 245.117188 C 133.882812 239.011719 129.875 234.050781 124.34375 232.332031 L 124.34375 199.324219 C 124.34375 198.371094 123.960938 197.609375 123.390625 196.84375 L 112.894531 184.632812 L 112.894531 100.875 L 131.976562 111.75 L 131.976562 119.574219 C 126.441406 121.289062 122.433594 126.25 122.433594 132.355469 C 122.433594 139.796875 128.347656 145.710938 135.789062 145.710938 C 143.230469 145.710938 149.144531 139.796875 149.144531 132.355469 C 149.144531 126.25 145.140625 121.289062 139.605469 119.574219 L 139.605469 109.652344 C 139.605469 108.316406 138.84375 106.980469 137.699219 106.410156 L 110.988281 91.144531 C 109.84375 90.382812 108.316406 90.382812 107.171875 91.144531 C 106.027344 91.910156 105.261719 93.054688 105.261719 94.390625 L 105.261719 135.410156 L 90 123.007812 L 90 91.910156 C 95.53125 90.191406 99.539062 85.230469 99.539062 79.125 C 99.539062 71.683594 93.625 65.769531 86.183594 65.769531 C 78.742188 65.769531 72.828125 71.683594 72.828125 79.125 C 72.828125 85.230469 76.835938 90.191406 82.367188 91.910156 Z M 126.25 245.117188 C 126.25 248.359375 123.769531 250.839844 120.527344 250.839844 C 117.285156 250.839844 114.804688 248.359375 114.804688 245.117188 C 114.804688 241.875 117.285156 239.394531 120.527344 239.394531 C 123.769531 239.394531 126.25 241.875 126.25 245.117188 Z M 141.515625 132.546875 C 141.515625 135.792969 139.035156 138.273438 135.789062 138.273438 C 132.546875 138.273438 130.066406 135.792969 130.066406 132.546875 C 130.066406 129.304688 132.546875 126.824219 135.789062 126.824219 C 139.035156 126.824219 141.515625 129.304688 141.515625 132.546875 Z M 86.183594 73.402344 C 89.425781 73.402344 91.90625 75.882812 91.90625 79.125 C 91.90625 82.367188 89.425781 84.847656 86.183594 84.847656 C 82.941406 84.847656 80.460938 82.367188 80.460938 79.125 C 80.460938 75.882812 82.941406 73.402344 86.183594 73.402344 Z M 86.183594 73.402344 " fill-opacity="1" fill-rule="nonzero"/></g><path fill="#ffffff" d="M 168.226562 126.441406 L 168.226562 182.34375 L 139.605469 210.964844 L 139.605469 183.488281 C 145.140625 181.773438 149.144531 176.8125 149.144531 170.707031 C 149.144531 163.265625 143.230469 157.351562 135.789062 157.351562 C 128.347656 157.351562 122.433594 163.265625 122.433594 170.707031 C 122.433594 176.8125 126.441406 181.773438 131.976562 183.488281 L 131.976562 220.3125 C 131.976562 221.839844 132.929688 223.175781 134.265625 223.746094 C 134.835938 224.128906 135.21875 224.128906 135.789062 224.128906 C 136.746094 224.128906 137.699219 223.746094 138.460938 222.984375 L 174.710938 186.734375 C 175.476562 185.96875 175.859375 185.015625 175.859375 184.0625 L 175.859375 124.914062 C 175.859375 123.960938 175.476562 123.007812 174.710938 122.246094 L 160.59375 108.125 L 160.59375 79.125 C 160.59375 77.027344 158.875 75.308594 156.777344 75.308594 C 154.679688 75.308594 152.960938 77.027344 152.960938 79.125 L 152.960938 109.652344 C 152.960938 110.605469 153.34375 111.558594 154.105469 112.324219 Z M 135.789062 176.429688 C 132.546875 176.429688 130.066406 173.949219 130.066406 170.707031 C 130.066406 167.464844 132.546875 164.984375 135.789062 164.984375 C 139.035156 164.984375 141.515625 167.464844 141.515625 170.707031 C 141.515625 173.949219 139.035156 176.429688 135.789062 176.429688 Z M 135.789062 176.429688 " fill-opacity="1" fill-rule="nonzero"/><g clip-path="url(#a39cd34543)"><path fill="#ffffff" d="M 70.921875 218.40625 C 70.921875 225.847656 76.835938 231.761719 84.277344 231.761719 C 91.71875 231.761719 97.632812 225.847656 97.632812 218.40625 C 97.632812 212.300781 93.625 207.339844 88.09375 205.621094 L 88.09375 179.675781 C 93.625 177.957031 97.632812 172.996094 97.632812 166.890625 C 97.632812 159.449219 91.71875 153.535156 84.277344 153.535156 C 76.835938 153.535156 70.921875 159.449219 70.921875 166.890625 C 70.921875 172.996094 74.925781 177.957031 80.460938 179.675781 L 80.460938 205.621094 C 74.925781 207.339844 70.921875 212.300781 70.921875 218.40625 Z M 78.550781 166.890625 C 78.550781 163.648438 81.03125 161.167969 84.277344 161.167969 C 87.519531 161.167969 90 163.648438 90 166.890625 C 90 170.132812 87.519531 172.613281 84.277344 172.613281 C 81.03125 172.613281 78.550781 170.132812 78.550781 166.890625 Z M 84.277344 212.679688 C 87.519531 212.679688 90 215.160156 90 218.40625 C 90 221.648438 87.519531 224.128906 84.277344 224.128906 C 81.03125 224.128906 78.550781 221.648438 78.550781 218.40625 C 78.550781 215.160156 81.03125 212.679688 84.277344 212.679688 Z M 84.277344 212.679688 " fill-opacity="1" fill-rule="nonzero"/></g></svg>